<svg width="30" height="29" viewBox="0 0 30 29" fill="none" xmlns="http://www.w3.org/2000/svg">
<path fill-rule="evenodd" clip-rule="evenodd" d="M5.86604 14.4739C5.86604 8.38371 10.895 3.45123 17.0335 3.62007C22.6895 3.77685 27.417 8.50431 27.5738 14.1604C27.7426 20.2989 22.8101 25.3278 16.7199 25.3278C14.1994 25.3278 11.896 24.4716 10.0629 23.0244C9.49605 22.5902 9.45988 21.734 9.96639 21.2275C10.4005 20.7933 11.0759 20.7571 11.5583 21.131C12.9814 22.2526 14.7783 22.9158 16.7199 22.9158C21.4233 22.9158 25.2221 19.0688 25.1618 14.3533C25.1015 9.86708 21.3268 6.09234 16.8405 6.03204C12.113 5.97174 8.27801 9.7706 8.27801 14.4739H10.4367C10.9794 14.4739 11.2447 15.1252 10.8709 15.499L7.50618 18.8758C7.26498 19.117 6.89112 19.117 6.64993 18.8758L3.28523 15.499C2.89931 15.1252 3.16463 14.4739 3.70732 14.4739H5.86604ZM15.5139 10.5545C15.5139 10.06 15.924 9.65 16.4184 9.65C16.9129 9.65 17.3229 10.06 17.3229 10.5424V14.6428L20.7961 16.705C21.2182 16.9583 21.363 17.513 21.1097 17.9472C20.8564 18.3693 20.3017 18.514 19.8675 18.2607L16.1049 16.0297C15.7431 15.8126 15.5139 15.4146 15.5139 14.9925V10.5545Z" fill="white"/>
</svg>
