<svg width="31" height="30" viewBox="0 0 31 30" fill="none" xmlns="http://www.w3.org/2000/svg">
<path fill-rule="evenodd" clip-rule="evenodd" d="M30.4651 0.43934C31.0672 1.02513 31.0672 1.97487 30.4651 2.56066L19.6735 13.0607C19.0714 13.6464 18.0953 13.6464 17.4932 13.0607C16.8912 12.4749 16.8912 11.5251 17.4932 10.9393L28.2849 0.43934C28.8869 -0.146447 29.8631 -0.146447 30.4651 0.43934Z" fill="white"/>
<path fill-rule="evenodd" clip-rule="evenodd" d="M13.5068 16.9393C14.1088 17.5251 14.1088 18.4749 13.5068 19.0607L2.71512 29.5607C2.11306 30.1464 1.13693 30.1464 0.534872 29.5607C-0.0671864 28.9749 -0.0671864 28.0251 0.534872 27.4393L11.3265 16.9393C11.9286 16.3536 12.9047 16.3536 13.5068 16.9393Z" fill="white"/>
</svg>
